<svg fill="none" height="62" viewBox="0 0 140 62" width="140" xmlns="http://www.w3.org/2000/svg"><path d="m7.87738 59.16c-1.13067 0-2.15467-.2453-3.072-.736-.90667-.5013-1.62134-1.1893-2.144-2.064-.512-.8747-.768-1.8613-.768-2.96s.26133-2.0853.784-2.96c.52266-.8747 1.23733-1.5573 2.144-2.048.91733-.5013 1.94133-.752 3.072-.752.91733 0 1.75466.16 2.51202.48.7573.32 1.3973.784 1.92 1.392l-1.344 1.264c-.8107-.8747-1.80802-1.312-2.99202-1.312-.768 0-1.456.1707-2.064.512-.608.3307-1.08267.7947-1.424 1.392-.34134.5973-.512 1.2747-.512 2.032s.17066 1.4347.512 2.032c.34133.5973.816 1.0667 1.424 1.408.608.3307 1.296.496 2.064.496 1.184 0 2.18132-.4427 2.99202-1.328l1.344 1.28c-.5227.608-1.168 1.072-1.936 1.392-.75736.32-1.59469.48-2.51202.48zm6.76102-11.36h2.08v9.44h5.856v1.76h-7.936zm18.2981 9.456v1.744h-8.4v-11.2h8.176v1.744h-6.096v2.912h5.408v1.712h-5.408v3.088zm12.7225-9.456-4.88 11.2h-2.048l-4.896-11.2h2.256l3.728 8.64 3.76-8.64zm9.9019 9.456v1.744h-8.4v-11.2h8.176v1.744h-6.096v2.912h5.408v1.712h-5.408v3.088zm9.9667 1.744-2.288-3.28c-.096.0107-.24.016-.432.016h-2.528v3.264h-2.08v-11.2h4.608c.9707 0 1.8134.16 2.528.48.7254.32 1.28.7787 1.664 1.376s.576 1.3067.576 2.128c0 .8427-.208 1.568-.624 2.176-.4053.608-.992 1.0613-1.76 1.36l2.576 3.68zm-.048-7.216c0-.7147-.2346-1.264-.704-1.648-.4693-.384-1.1573-.576-2.064-.576h-2.432v4.464h2.432c.9067 0 1.5947-.192 2.064-.576.4694-.3947.704-.9493.704-1.664zm12.957 7.376c-.864 0-1.7013-.1227-2.512-.368-.8-.2453-1.4346-.5707-1.904-.976l.72-1.616c.4587.3627 1.0187.6613 1.68.896.672.224 1.344.336 2.016.336.832 0 1.4507-.1333 1.856-.4.416-.2667.624-.6187.624-1.056 0-.32-.1173-.5813-.352-.784-.224-.2133-.512-.3787-.864-.496s-.832-.2507-1.44-.4c-.8533-.2027-1.5466-.4053-2.08-.608-.5226-.2027-.976-.5173-1.36-.944-.3733-.4373-.56-1.024-.56-1.76 0-.6187.1654-1.1787.496-1.68.3414-.512.848-.9173 1.52-1.216.6827-.2987 1.5147-.448 2.496-.448.6827 0 1.3547.0853 2.016.256.6614.1707 1.232.416 1.712.736l-.656 1.616c-.4906-.288-1.0026-.5067-1.536-.656-.5333-.1493-1.0506-.224-1.552-.224-.8213 0-1.4346.1387-1.84.416-.3946.2773-.592.6453-.592 1.104 0 .32.112.5813.336.784.2347.2027.528.3627.88.48s.832.2507 1.44.4c.832.192 1.5147.3947 2.048.608.5334.2027.9867.5173 1.36.944.384.4267.576 1.0027.576 1.728 0 .6187-.1706 1.1787-.512 1.68-.3306.5013-.8373.9013-1.52 1.2-.6826.2987-1.5146.448-2.496.448zm9.0263-9.6h-3.712v-1.76h9.504v1.76h-3.712v9.44h-2.08zm12.2858 9.6c-1.5466 0-2.752-.432-3.616-1.296-.864-.8747-1.296-2.1227-1.296-3.744v-6.32h2.08v6.24c0 2.1973.9494 3.296 2.848 3.296 1.8883 0 2.8323-1.0987 2.8323-3.296v-6.24h2.048v6.32c0 1.6213-.432 2.8693-1.296 3.744-.854.864-2.054 1.296-3.6003 1.296zm8.1293-11.36h4.896c1.194 0 2.256.2347 3.184.704.928.4587 1.648 1.1147 2.16 1.968.512.8427.768 1.8187.768 2.928s-.256 2.0907-.768 2.944c-.512.8427-1.232 1.4987-2.16 1.968-.928.4587-1.99.688-3.184.688h-4.896zm4.8 9.44c.821 0 1.541-.1547 2.16-.464.629-.32 1.109-.768 1.44-1.344.341-.5867.512-1.264.512-2.032s-.171-1.44-.512-2.016c-.331-.5867-.811-1.0347-1.44-1.344-.619-.32-1.339-.48-2.16-.48h-2.72v7.68zm8.738-9.44h2.08v11.2h-2.08zm10.662 11.36c-1.141 0-2.171-.2453-3.088-.736-.917-.5013-1.637-1.1893-2.16-2.064-.523-.8853-.784-1.872-.784-2.96s.261-2.0693.784-2.944c.523-.8853 1.243-1.5733 2.16-2.064.917-.5013 1.947-.752 3.088-.752s2.171.2507 3.088.752c.917.4907 1.637 1.1733 2.16 2.048s.784 1.8613.784 2.96-.261 2.0853-.784 2.96-1.243 1.5627-2.16 2.064c-.917.4907-1.947.736-3.088.736zm0-1.824c.747 0 1.419-.1653 2.016-.496.597-.3413 1.067-.8107 1.408-1.408.341-.608.512-1.2853.512-2.032s-.171-1.4187-.512-2.016c-.341-.608-.811-1.0773-1.408-1.408-.597-.3413-1.269-.512-2.016-.512s-1.419.1707-2.016.512c-.597.3307-1.067.8-1.408 1.408-.341.5973-.512 1.2693-.512 2.016s.171 1.424.512 2.032c.341.5973.811 1.0667 1.408 1.408.597.3307 1.269.496 2.016.496z" fill="#000"/><g stroke="#000" stroke-width="1.83592"><path d="m59.4321 13.5163-.3509-.0074c-.9917-.0211-1.9726-.4066-2.7254-1.1549-1.5474-1.5384-1.5492-4.03356 0-5.57371.7236-.71927 1.6548-1.1033 2.6035-1.15222l.8443-.04353.026-.84493c.0298-.9678.4152-1.92517 1.1594-2.66498 1.5522-1.543127 4.0714-1.54133 5.6219 0 .7701.76562 1.1564 1.76669 1.1603 2.77143l.0036.91438h.0173v7.75586z"/><path d="m72.3997 5.35849.0065-.30644c.021-.98041.4068-1.95283 1.1604-2.70203 1.5522-1.543126 4.0715-1.541329 5.6219 0 .722.71777 1.1066 1.64123 1.1558 2.58054l.0442.84336.8441.02612c.9788.03029 1.9449.41586 2.6893 1.15593 1.5487 1.53956 1.5457 4.03233-.0024 5.57133-.7699.7654-1.7786 1.1513-2.7934 1.1557l-.914.004v.0192h-7.8124z"/><path d="m72.2112 26.2407v-7.7558h8.5168l.1936.0042c.9908.0215 1.9708.4074 2.7235 1.1557 1.5471 1.5381 1.5471 4.0356 0 5.5737-.7215.7172-1.6522 1.101-2.6013 1.1503l-.8446.0439-.0254.8454c-.029.969-.4144 1.9277-1.1594 2.6684-1.5517 1.5426-4.0733 1.5396-5.6243-.0023-.7701-.7657-1.1568-1.7658-1.1612-2.7696l-.0041-.9139z"/><path d="m59.6567 27.0688-.0439-.8443-.845-.0256c-.9792-.0297-1.9451-.4148-2.6886-1.1539-1.5474-1.5384-1.5492-4.0336 0-5.5737.7721-.7675 1.7821-1.1533 2.7973-1.1567l.9149-.003v-.0145h7.8124v8.2025l-.0099.4512c-.0215.9806-.4074 1.9525-1.1594 2.7001-1.5501 1.5411-4.0717 1.5411-5.6219 0-.7224-.7182-1.107-1.6423-1.1559-2.5821z"/></g></svg>