<svg fill="none" height="28" viewBox="0 0 28 28" width="28" xmlns="http://www.w3.org/2000/svg"><g clip-rule="evenodd" fill="#ff7560" fill-rule="evenodd"><path d="m14 0c-7.73199 0-14 6.26801-14 14 0 7.732 6.26801 14 14 14 7.732 0 14-6.268 14-14 0-7.73199-6.268-14-14-14zm-8.4 13.3778c0-4.29559 3.7608-7.7778 8.4-7.7778s8.4 3.48221 8.4 7.7778c0 4.2955-3.7608 7.7778-8.4 7.7778-.8375 0-1.6461-.1141-2.4094-.3253l-2.86017 1.5697v-2.9656c-1.90893-1.4257-3.13043-3.609-3.13043-6.0566z"/><path d="m14.6141 15.8667-2.1056-2.1844-4.10848 2.1844 4.51928-4.6667 2.157 2.1844 4.0571-2.1844z"/></g></svg>