<svg fill="none" height="28" viewBox="0 0 28 28" width="28" xmlns="http://www.w3.org/2000/svg"><path clip-rule="evenodd" d="m14 28c7.732 0 14-6.268 14-14 0-7.73199-6.268-14-14-14-7.73199 0-14 6.26801-14 14 0 7.732 6.26801 14 14 14zm-2.5667-7.5833c.3405 0 .4961-.1515.6842-.3346l.0158-.0154 1.6816-1.6352 3.4984 2.5847c.6439.3553 1.1085.1713 1.2689-.5977l2.2966-10.82238c.2351-.94269-.3594-1.37025-.9753-1.09062l-13.48549 5.1999c-.92051.3693-.91514.8828-.16779 1.1116l3.46069 1.0802 8.01189-5.0546c.3782-.2294.7253-.106.4404.1468l-6.4915 5.8581h-.0001v.0001l-.0003.0002.0002.0002z" fill="#ff7560" fill-rule="evenodd"/></svg>