<svg fill="none" height="28" viewBox="0 0 28 28" width="28" xmlns="http://www.w3.org/2000/svg"><path clip-rule="evenodd" d="m14-.00000012c7.732 0 14 6.26801012 14 14.00000012 0 7.732-6.268 14-14 14-7.73199 0-14-6.268-14-14 0-7.73199 6.26801-14.00000012 14-14.00000012zm.8385 5.70273012c.9519.11881 1.7212.34813 2.5652.75983.8302.40619 1.3615.79025 2.0644 1.48929.6586.66037 1.0239 1.16051 1.4113 1.93691.5396 1.08314.8468 2.37074.8993 3.78814.0194.4835.0056.5913-.1051.7295-.2103.268-.6725.2238-.8302-.0774-.0498-.0995-.0637-.1851-.0803-.5719-.0276-.5941-.0691-.9782-.1521-1.4368-.3266-1.7988-1.19-3.23558-2.5681-4.26622-1.1484-.86206-2.3355-1.28206-3.8907-1.37323-.5258-.03039-.6171-.04972-.7361-.14091-.2214-.17408-.2324-.583-.0194-.77365.1301-.11883.2214-.1354.6725-.12159.2352.00829.5811.03592.7693.05803zm-6.32594.29842c.09687.03314.24629.1105.33209.16577.52574.34816 1.98965 2.21873 2.46835 3.15266.274.53326.3653.92842.2795 1.22122-.0886.315-.2352.4808-.891 1.0086-.2629.2127-.5092.431-.5479.489-.0997.1437-.17995.4255-.17995.6245.00281.4614.30165 1.2986.69465 1.9424.3043.5001.8495 1.1411 1.3891 1.633.6337.5803 1.1927.9753 1.8236 1.2876.8108.4034 1.3062.5056 1.6687.3371.0913-.0415.1881-.0967.2186-.1216.0276-.0249.2408-.2846.4732-.5719.4483-.5637.5507-.6549.8578-.7599.3902-.1326.7887-.0967 1.19.1078.3044.1575.9685.5692 1.3974.8676.5645.3951 1.771 1.3787 1.9344 1.575.2877.3536.3376.8067.1438 1.3069-.2048.5277-1.0017 1.5169-1.558 1.9396-.5036.3814-.8605.5277-1.331.5499-.3874.0193-.5479-.0138-1.0432-.2183-3.8852-1.5998-6.9873-3.9871-9.45022-7.2669-1.28674-1.7131-2.26637-3.4897-2.93607-5.33269-.39015-1.07482-.40951-1.54178-.08855-2.09163.13839-.23209.72781-.80682 1.15673-1.12732.71397-.53052 1.04326-.72671 1.30615-.78196.17986-.03869.49255-.0083.69182.06355zm6.51684 1.70481c1.6798.24589 2.9804 1.0251 3.8327 2.29057.4787.71287.7776 1.55007.88 2.44807.0359.3288.0359.9284-.0028 1.0279-.036.0939-.1522.221-.2518.2735-.108.0553-.3376.0498-.4649-.0166-.2131-.1077-.2767-.279-.2767-.7432 0-.7157-.1855-1.47-.5064-2.0558-.3653-.6686-.8966-1.22123-1.5441-1.60531-.5563-.33156-1.3781-.57746-2.1281-.63824-.2712-.02213-.4206-.07738-.523-.19619-.1577-.17961-.1744-.42276-.0415-.62445.1439-.22381.3653-.25973 1.0266-.16025zm.5895 2.0861c.5451.11606.963.32324 1.3199.65764.4594.4338.7113.9587.8219 1.7131.0747.4918.0443.6852-.1301.8455-.1632.1492-.4648.1547-.6475.0138-.1328-.0995-.1743-.2045-.2048-.4891-.0359-.3785-.1024-.6438-.2158-.8897-.2435-.5222-.6724-.793-1.3974-.8814-.3405-.0415-.4428-.0801-.5535-.21-.202-.2404-.1246-.62997.1549-.77366.1052-.05249.1495-.05803.3819-.04421.1439.00829.357.03315.4705.05803z" fill="#ff7560" fill-rule="evenodd"/></svg>