<svg fill="none" height="28" viewBox="0 0 28 28" width="28" xmlns="http://www.w3.org/2000/svg"><path d="m22.1667 0h-16.33337c-3.22116 0-5.83333 2.61217-5.83333 5.83333v16.33337c0 3.2211 2.61217 5.8333 5.83333 5.8333h16.33337c3.2223 0 5.8333-2.6122 5.8333-5.8333v-16.33337c0-3.22116-2.611-5.83333-5.8333-5.83333zm.2916 19.8287h-2.4896c-1.4059 0-1.6439-.8015-2.8012-1.9589-1.0465-1.0465-1.6275-.2438-1.603 1.246.007.3955-.1878.7129-.6603.7129-1.4747 0-3.5934.2076-5.7377-2.107-2.19683-2.3719-4.49983-7.1295-4.49983-7.5985 0-.27653.22866-.40137.61133-.40137h2.53167c.66966 0 .72683.33137.9135.75717.77816 1.7745 2.64253 5.3363 3.13833 3.3483.2847-1.141.4013-3.7858-.8202-4.0133-.693-.12833.5274-.87033 2.296-.87033.4399 0 .917.04783 1.4059.15983.8971.20883.8995.61017.8878 1.197-.0455 2.2202-.3138 3.7147.2718 4.0915.5589.3617 2.0289-2.0032 2.8035-3.8278.2135-.5052.2555-.84237.8564-.84237h3.0963c1.6217 0-.2123 2.32987-1.6135 4.14987-1.1293 1.4641-1.0687 1.4933.2438 2.7113.9369.868 2.0417 2.0533 2.0417 2.7253.0023.3174-.245.5204-.8727.5204z" fill="#FF7560"/></svg>