<svg fill="none" height="28" viewBox="0 0 28 28" width="28" xmlns="http://www.w3.org/2000/svg"><g clip-rule="evenodd" fill="#ff7560" fill-rule="evenodd"><path d="m28 14c0 7.732-6.268 14-14 14-7.73199 0-14-6.268-14-14 0-7.73199 6.26801-14 14-14 7.732 0 14 6.26801 14 14zm-13.542 7.789h.0035c4.5899-.0019 8.3229-3.7358 8.3247-8.3248.0009-2.2243-.8642-4.31589-2.4359-5.88938-1.5717-1.57357-3.6619-2.44053-5.8889-2.44149-4.58859 0-8.32311 3.73432-8.32494 8.32427-.00062 1.4673.38272 2.8994 1.11123 4.1619l-1.18102 4.3138 4.41313-1.1576c1.2159.6632 2.5849 1.0128 3.9782 1.0133z"/><path d="m10.937 19.4185-.2527-.1499-2.61882.687.699-2.5534-.16452-.2618c-.69263-1.1016-1.05844-2.3749-1.05791-3.6823.00152-3.81496 3.10555-6.91869 6.92215-6.91869 1.8482.00064 3.5854.72127 4.8918 2.02916s2.0254 3.04633 2.0247 4.89513c-.0015 3.8153-3.1055 6.9193-6.9192 6.9193h-.0028c-1.2416-.0005-2.4594-.334-3.5217-.9645zm7.4336-4.162c.1451.0701.243.1175.2849.1873.052.0867.052.5032-.1213.9892-.1734.4858-1.0044.9293-1.4041.989-.3583.0536-.8118.0759-1.3101-.0824-.3021-.0959-.6896-.2239-1.1858-.4382-1.9501-.842-3.2679-2.732-3.517-3.0892-.0174-.0251-.0296-.0426-.0364-.0517l-.0017-.0022c-.1101-.1469-.8477-1.131-.8477-2.1495 0-.9582.4707-1.4604.6873-1.69157.0148-.01583.0285-.0304.0407-.04375.1907-.20825.4161-.26032.5547-.26032.1387 0 .2775.00129.3987.00737.0149.00075.0305.00066.0466.00057.1212-.00071.2723-.0016.4214.3565.0573.1378.1413.3421.2298.5576.179.4358.3767.9172.4115.9869.052.1041.0867.2255.0174.3644-.0104.0209-.0201.0405-.0293.0593-.052.1063-.0904.1845-.1787.2877-.0348.0406-.0707.0843-.1066.1281-.0716.0871-.1432.1743-.2055.2363-.1041.1038-.2125.2163-.0912.4246.1214.2082.5388.8893 1.1572 1.4409.6647.5929 1.2425.8435 1.5353.9706.0572.0248.1035.0448.1375.0619.2079.1041.3293.0867.4506-.0521.1214-.1388.52-.6074.6586-.8156.1387-.2082.2774-.1735.4681-.1041.1907.0695 1.2133.5726 1.4213.6767.0406.0204.0786.0387.1138.0557z"/></g></svg>