<svg height="700pt" preserveAspectRatio="xMidYMid meet" viewBox="0 0 700 700" width="700pt" xmlns="http://www.w3.org/2000/svg"><g transform="matrix(.1 0 0 -.1 0 700)"><path d="m2105 6989c-163-21-351-94-492-191-159-110-281-253-369-433-59-121-88-222-106-361l-12-91-80-12c-250-35-452-132-631-302-182-175-298-395-336-639-19-121-6-345 26-460 56-203 160-376 315-523 174-165 376-263 615-297 43-6 504-10 1208-10h1138l-4 1158c-3 1040-5 1165-21 1241-73 365-287 651-601 806-213 105-423 142-650 114zm355-275c316-81 563-339 635-664 15-66 17-195 22-1098l6-1023-1044 3c-939 3-1050 5-1099 20-204 61-348 154-462 297-263 329-256 783 17 1104 103 122 278 232 433 272 71 18 229 34 338 35h72l6 148c7 172 27 291 63 382 112 279 352 478 648 536 88 17 276 11 365-12z"/><path d="m4576 6914c-225-44-428-156-590-324-124-128-195-244-254-410-63-180-62-157-62-1417v-1144l1158 4c1021 3 1166 6 1237 20 379 77 667 296 825 629 203 428 117 930-220 1269-183 184-431 302-683 325l-75 7-7 66c-51 481-426 885-908 976-98 19-326 18-421-1zm459-274c219-70 404-219 509-411 73-133 101-249 112-466l7-143h26c120-2 348-22 401-35 100-26 256-105 335-172 137-115 240-277 286-448 31-116 32-309 1-423-90-336-341-571-682-639-62-12-248-15-1088-20l-1013-6 3 1044c4 1133 0 1057 57 1210 68 181 231 359 410 448 153 77 222 91 416 87 122-3 163-8 220-26z"/><path d="m1085 3373c-358-29-635-170-839-425-177-221-268-532-238-807 37-336 213-633 486-820 131-90 359-172 519-187l75-7 7-66c17-162 91-362 183-499 232-340 620-527 1025-492 476 41 862 365 994 835l28 100 3 1188 3 1187-1103-2c-607-1-1121-3-1143-5zm1983-1295-3-1043-23-72c-80-261-241-450-478-559-229-106-522-99-746 18-226 117-377 306-444 558-9 30-20 132-26 226l-12 171-80 7c-45 3-111 6-147 6-310 0-610 189-754 475-69 137-88 222-88 390 0 122 3 151 27 228 89 296 305 512 597 598 101 30 288 35 1337 37l843 2z"/><path d="m3620 2248c0-1109 4-1253 39-1391 98-382 379-683 747-801 349-112 728-48 1022 174 181 136 318 330 390 550 25 77 52 217 52 270v38l68 7c234 25 485 143 654 309 222 216 340 497 340 806 0 513-336 949-839 1088l-98 27-1187 3-1188 3zm2358 806c344-71 609-334 677-673 23-111 16-305-14-405-47-156-121-276-244-392-169-162-338-224-644-240-73-3-133-9-133-13-14-303-20-361-45-446-150-515-718-767-1202-534-101 48-215 138-288 226-62 75-145 234-170 328-25 91-34 441-34 1358l-1 807h1010c884 0 1021-2 1088-16z"/></g></svg>